<svg xmlns="http://www.w3.org/2000/svg" viewBox="0 0 30 26"><defs><style>.cls-1{fill:#fafafa;}</style></defs><g id="Layer_2" data-name="Layer 2"><g id="LINE"><path class="cls-1" d="M12,16a8,8,0,1,1,8-8A8,8,0,0,1,12,16ZM12,2a6,6,0,1,0,6,6A6,6,0,0,0,12,2Z"/><path class="cls-1" d="M23,26H1a1,1,0,0,1-1-1V18.14a1,1,0,0,1,.46-.84L7.23,13a1,1,0,0,1,1.38.31A1,1,0,0,1,8.3,14.7l-6.3,4V24H22V18.69l-6.3-4A1,1,0,0,1,16.77,13l6.77,4.29a1,1,0,0,1,.46.84V25A1,1,0,0,1,23,26Z"/><path class="cls-1" d="M26,13a1,1,0,0,1-.71-.29l-1-1a1,1,0,0,1,1.42-1.42l.29.3,2.29-2.3a1,1,0,0,1,1.42,1.42l-3,3A1,1,0,0,1,26,13Z"/></g></g></svg>