<?xml version="1.0" encoding="utf-8"?>
<!-- Generator: Adobe Illustrator 25.2.1, SVG Export Plug-In . SVG Version: 6.00 Build 0)  -->
<svg version="1.1" id="Layer_1" xmlns="http://www.w3.org/2000/svg" xmlns:xlink="http://www.w3.org/1999/xlink" x="0px" y="0px"
	 viewBox="0 0 16.8 28" style="enable-background:new 0 0 16.8 28;" xml:space="preserve">
<style type="text/css">
	.st0{fill:none;stroke:#BDBDBD;stroke-linecap:round;stroke-linejoin:round;}
</style>
<g id="Layer_2_1_">
	<g id="Layer_1-2">
		<g id="ic-mobile-user">
			<path class="st0" d="M1.5,0.5h13.8c0.6,0,1,0.4,1,1v25c0,0.6-0.4,1-1,1H1.5c-0.6,0-1-0.4-1-1v-25C0.5,0.9,0.9,0.5,1.5,0.5z"/>
			<line class="st0" x1="0.5" y1="5.2" x2="16.3" y2="5.2"/>
			<line class="st0" x1="0.5" y1="21.2" x2="16.3" y2="21.2"/>
			<line class="st0" x1="6.7" y1="2.9" x2="10.1" y2="2.9"/>
			<circle class="st0" cx="8.4" cy="24.4" r="1.1"/>
			<path class="st0" d="M1.5,0.5h13.8c0.6,0,1,0.4,1,1v25c0,0.6-0.4,1-1,1H1.5c-0.6,0-1-0.4-1-1v-25C0.5,0.9,0.9,0.5,1.5,0.5z"/>
			<line class="st0" x1="0.5" y1="5.2" x2="16.3" y2="5.2"/>
			<line class="st0" x1="0.5" y1="21.2" x2="16.3" y2="21.2"/>
			<line class="st0" x1="6.7" y1="2.9" x2="10.1" y2="2.9"/>
			<circle class="st0" cx="8.4" cy="24.4" r="1.1"/>
			<circle class="st0" cx="8.4" cy="10.7" r="1.8"/>
			<path class="st0" d="M4.9,16.6c0-1.9,1.6-3.5,3.5-3.5l0,0c1.9,0,3.5,1.6,3.5,3.5v0.6c0,0,0,0.1-0.1,0.1H5c0,0-0.1,0-0.1-0.1
				L4.9,16.6z"/>
		</g>
	</g>
</g>
</svg>
